<?xml version="1.0" standalone="no"?><!DOCTYPE svg PUBLIC "-//W3C//DTD SVG 1.1//EN" "http://www.w3.org/Graphics/SVG/1.1/DTD/svg11.dtd"><svg t="1566539191798" class="icon" viewBox="0 0 1024 1024" version="1.1" xmlns="http://www.w3.org/2000/svg" p-id="1421" xmlns:xlink="http://www.w3.org/1999/xlink" width="32" height="32"><defs><style type="text/css"></style></defs><path d="M539.7 961.5L270.5 692.3H96V331.7h174.5L539.7 62.5v899z m-416-297H282l230 230v-765l-230 230H123.7v305zM636.8 664.5v-27.7c68.8 0 124.8-56 124.8-124.8s-56-124.8-124.8-124.8v-27.7c84.1 0 152.5 68.4 152.5 152.5s-68.4 152.5-152.5 152.5z" p-id="1422"></path><path d="M636.8 803.2v-27.7c145.3 0 263.5-118.2 263.5-263.5S782.1 248.5 636.8 248.5v-27.7C797.4 220.8 928 351.4 928 512S797.4 803.2 636.8 803.2z" p-id="1423"></path></svg>