<?xml version="1.0" standalone="no"?><!DOCTYPE svg PUBLIC "-//W3C//DTD SVG 1.1//EN" "http://www.w3.org/Graphics/SVG/1.1/DTD/svg11.dtd"><svg t="1565938680152" class="icon" viewBox="0 0 1024 1024" version="1.1" xmlns="http://www.w3.org/2000/svg" p-id="1518" xmlns:xlink="http://www.w3.org/1999/xlink" width="32" height="32"><defs><style type="text/css"></style></defs><path d="M503.4 676.8L307.6 523v-22l195.7-153.8 22.6 11v307.5l-22.5 11.1zM338.9 512L498 637V387L338.9 512zM782.9 676.8L587.2 523v-22l195.7-153.8 22.6 11v307.5l-22.6 11.1zM618.5 512l159.1 125V387L618.5 512zM218.4 386.2h28v251.6h-28z" p-id="1519"></path><path d="M512 959.3c-119.5 0-231.8-46.5-316.3-131S64.7 631.5 64.7 512s46.5-231.8 131-316.3 196.8-131 316.3-131 231.8 46.5 316.3 131 131 196.8 131 316.3-46.5 231.8-131 316.3-196.8 131-316.3 131z m0-866.7c-112 0-217.3 43.6-296.5 122.9C136.2 294.7 92.6 400 92.6 512s43.6 217.3 122.8 296.5C294.7 887.8 400 931.4 512 931.4s217.3-43.6 296.5-122.9C887.8 729.3 931.4 624 931.4 512s-43.6-217.3-122.8-296.5C729.3 136.2 624 92.6 512 92.6z" p-id="1520"></path></svg>