<?xml version="1.0" standalone="no"?><!DOCTYPE svg PUBLIC "-//W3C//DTD SVG 1.1//EN" "http://www.w3.org/Graphics/SVG/1.1/DTD/svg11.dtd"><svg t="1565938083895" class="icon" viewBox="0 0 1024 1024" version="1.1" xmlns="http://www.w3.org/2000/svg" p-id="1068" xmlns:xlink="http://www.w3.org/1999/xlink" width="32" height="32"><defs><style type="text/css"></style></defs><path d="M520.6 676.2l-22.5-11V358.7l22.5-11L715.7 501v22L520.6 676.2z m5.3-288.8v249.2L684.5 512 525.9 387.4zM241.9 676.2l-22.5-11V358.7l22.5-11L437 501v22L241.9 676.2z m5.3-288.8v249.2L405.8 512 247.2 387.4zM776.8 386.6h27.9v250.8h-27.9z" p-id="1069"></path><path d="M512 957.9c-119.1 0-231.1-46.4-315.3-130.6C112.5 743.1 66.1 631.1 66.1 512c0-119.1 46.4-231.1 130.6-315.3C280.9 112.5 392.9 66.1 512 66.1c119.1 0 231.1 46.4 315.3 130.6 84.2 84.2 130.6 196.2 130.6 315.3 0 119.1-46.4 231.1-130.6 315.3-84.2 84.2-196.2 130.6-315.3 130.6z m0-864c-111.7 0-216.6 43.5-295.6 122.5-79 79-122.5 183.9-122.5 295.6 0 111.7 43.5 216.6 122.5 295.6 79 79 183.9 122.5 295.6 122.5 111.7 0 216.6-43.5 295.6-122.5 79-79 122.5-183.9 122.5-295.6 0-111.7-43.5-216.6-122.5-295.6-79-79-183.9-122.5-295.6-122.5z" p-id="1070"></path></svg>