<?xml version="1.0" standalone="no"?><!DOCTYPE svg PUBLIC "-//W3C//DTD SVG 1.1//EN" "http://www.w3.org/Graphics/SVG/1.1/DTD/svg11.dtd"><svg t="1566548579769" class="icon" viewBox="0 0 1024 1024" version="1.1" xmlns="http://www.w3.org/2000/svg" p-id="886" xmlns:xlink="http://www.w3.org/1999/xlink" width="32" height="32"><defs><style type="text/css"></style></defs><path d="M525.9 960.1c-69.1 0-125.3-56.2-125.3-125.3s56.2-125.3 125.3-125.3 125.3 56.2 125.3 125.3S595 960.1 525.9 960.1z m0-222.9c-53.8 0-97.5 43.7-97.5 97.5s43.7 97.5 97.5 97.5c53.7 0 97.5-43.7 97.5-97.5s-43.7-97.5-97.5-97.5z" p-id="887"></path><path d="M651.3 834.7h-27.9V155.9L929.8 64v224l-278.5 83.6v463.1z m0-658.1v165.9L902 267.3V101.4l-250.7 75.2zM94.2 277.6h473.5v27.9H94.2zM94.2 416.9h473.5v27.9H94.2z" p-id="888"></path><path d="M94.2 556.2h473.5v27.9H94.2z" p-id="889"></path></svg>